<svg id="american-express" xmlns="http://www.w3.org/2000/svg" xmlns:xlink="http://www.w3.org/1999/xlink" width="28.026" height="27.961" viewBox="0 0 28.026 27.961">
  <defs>
    <radialGradient id="radial-gradient" cx="0.175" cy="0.175" r="0.935" gradientUnits="objectBoundingBox">
      <stop offset="0" stop-color="#9dd5f6"/>
      <stop offset="0.071" stop-color="#98d3f5"/>
      <stop offset="0.157" stop-color="#89cef3"/>
      <stop offset="0.252" stop-color="#70c6ef"/>
      <stop offset="0.351" stop-color="#4ebbea"/>
      <stop offset="0.455" stop-color="#23ade3"/>
      <stop offset="0.5" stop-color="#0da6e0"/>
      <stop offset="1" stop-color="#2e77bc"/>
    </radialGradient>
  </defs>
  <path id="Trazado_1504" data-name="Trazado 1504" d="M27.861,0H0V27.961H27.861V18.734a1.057,1.057,0,0,0,.165-.615.959.959,0,0,0-.165-.614" transform="translate(0)" fill="url(#radial-gradient)"/>
  <path id="Trazado_1505" data-name="Trazado 1505" d="M2.512,99.532l-.536-1.306-.533,1.306m12.876-.52a.728.728,0,0,1-.387.067H12.98v-.727h.964a.8.8,0,0,1,.372.059.3.3,0,0,1,.164.29A.336.336,0,0,1,14.319,99.012Zm6.786.52-.542-1.306-.539,1.306Zm-12.65,1.414h-.8l0-2.566-1.135,2.566H5.826L4.688,98.378v2.568H3.095l-.3-.731H1.164l-.3.731H.009l1.4-3.276H2.574l1.332,3.1v-3.1H5.184l1.025,2.222L7.15,97.67h1.3v3.276Zm3.2,0H9.039V97.67h2.616v.682H9.821v.591H11.61v.672H9.821v.654h1.833Zm3.689-2.394a.923.923,0,0,1-.551.874.912.912,0,0,1,.387.276.941.941,0,0,1,.129.6v.643h-.79l0-.413a.985.985,0,0,0-.124-.638c-.115-.116-.289-.14-.571-.14H12.98v1.192H12.2V97.67H14a1.848,1.848,0,0,1,.949.157A.765.765,0,0,1,15.343,98.552Zm1.253,2.394h-.8V97.67h.8Zm9.27,0h-1.11l-1.484-2.458v2.458H21.677l-.3-.731H19.746l-.3.731h-.916a1.644,1.644,0,0,1-1.135-.363,1.648,1.648,0,0,1-.418-1.251,1.744,1.744,0,0,1,.422-1.281,1.586,1.586,0,0,1,1.189-.382h.758v.7h-.742a.757.757,0,0,0-.6.194,1.082,1.082,0,0,0-.225.742,1.141,1.141,0,0,0,.215.77.756.756,0,0,0,.545.169h.352L20,97.669h1.173l1.326,3.1v-3.1h1.193l1.376,2.282V97.67h.8v3.276ZM0,101.589H1.338l.3-.727h.675l.3.727H5.248v-.556l.235.558H6.85l.235-.567v.564h6.542l0-1.195h.126c.089,0,.115.011.115.158v1.037h3.383v-.278a2.681,2.681,0,0,0,1.256.278h1.424l.3-.727h.675l.3.727H23.95V100.9l.415.692h2.2V97.02H24.387v.54l-.3-.54H21.851v.54l-.28-.54H18.556a2.7,2.7,0,0,0-1.306.267V97.02H15.168v.267a1.289,1.289,0,0,0-.884-.267h-7.6l-.51,1.18-.524-1.18h-2.4v.54l-.263-.54H.949L0,99.193v2.4Z" transform="translate(0 -87.433)" fill="#fff"/>
  <path id="Trazado_1506" data-name="Trazado 1506" d="M78.39,155.419H76.962a.54.54,0,0,0-.317.059.255.255,0,0,0-.115.236.248.248,0,0,0,.171.244A.893.893,0,0,0,77,156l.424.012a1.237,1.237,0,0,1,.888.264.462.462,0,0,1,.073.081m0,1.226a1.221,1.221,0,0,1-1.062.419H75.816v-.7h1.506a.448.448,0,0,0,.317-.081.289.289,0,0,0,.093-.213.269.269,0,0,0-.1-.216.394.394,0,0,0-.276-.073c-.735-.025-1.652.023-1.652-1.014,0-.475.3-.975,1.124-.975h1.56v-.652h-1.45a1.632,1.632,0,0,0-.98.268v-.268H73.819a1.485,1.485,0,0,0-.936.268v-.268H69.055v.268A2.042,2.042,0,0,0,68,154.07H65.474v.268a1.787,1.787,0,0,0-1.1-.268H61.544l-.646.7-.606-.7H56.07v4.572h4.141l.666-.71.627.71,2.553,0v-1.075h.251a2.669,2.669,0,0,0,1.091-.161v1.234h2.106V157.45h.1c.129,0,.142,0,.142.135v1.056h6.4a1.825,1.825,0,0,0,1.066-.292v.292h2.029a2.724,2.724,0,0,0,1.148-.21v-.853Zm-3.125-1.309a.914.914,0,0,1,.234.695c0,.7-.441,1.034-1.23,1.034H72.745v-.7h1.519a.463.463,0,0,0,.32-.081.292.292,0,0,0,.093-.213.278.278,0,0,0-.1-.216.41.41,0,0,0-.279-.073c-.732-.025-1.649.023-1.649-1.014,0-.475.3-.975,1.12-.975h1.57v.7H73.906a.528.528,0,0,0-.314.059.275.275,0,0,0,.053.48.9.9,0,0,0,.3.038l.422.012A1.249,1.249,0,0,1,75.266,156.27Zm-7.065-.2a.748.748,0,0,1-.386.067h-.952V155.4h.964a.77.77,0,0,1,.374.059.311.311,0,0,1,.162.294A.355.355,0,0,1,68.2,156.067Zm.472.408a.853.853,0,0,1,.383.275.952.952,0,0,1,.129.6V158H68.4v-.41c0-.2.019-.489-.126-.641-.115-.118-.289-.145-.574-.145h-.837V158h-.787V154.72h1.808a1.94,1.94,0,0,1,.943.155.767.767,0,0,1,.4.727A.918.918,0,0,1,68.673,156.475Zm.989-1.754h2.614v.678H70.442v.6H72.23v.669H70.442v.652l1.834,0V158H69.662Zm-5.283,1.512H63.367V155.4h1.021c.283,0,.479.116.479.4S64.68,156.233,64.379,156.233ZM62.587,157.7l-1.2-1.335,1.2-1.292Zm-3.1-.385H57.557v-.652h1.719v-.669H57.557v-.6h1.963l.857.955Zm6.225-1.515c0,.91-.679,1.1-1.364,1.1h-.977V158H61.845l-.964-1.085-1,1.085h-3.1V154.72h3.15l.963,1.074,1-1.074h2.5C65.01,154.721,65.707,154.893,65.707,155.8Z" transform="translate(-50.529 -138.846)" fill="#fff"/>
</svg>
