<svg id="Mastercard-logo" xmlns="http://www.w3.org/2000/svg" width="52.978" height="41.144" viewBox="0 0 52.978 41.144">
  <path id="XMLID_1775_" d="M56.762,665.4v-2.73a1.6,1.6,0,0,0-1.728-1.729,1.79,1.79,0,0,0-1.548.774,1.6,1.6,0,0,0-1.458-.774,1.466,1.466,0,0,0-1.272.636v-.546H49.8V665.4h.954v-2.412c0-.774.408-1.14,1.044-1.14s.954.408.954,1.14V665.4h.954v-2.412a1.008,1.008,0,0,1,1.044-1.14c.636,0,.954.408.954,1.14V665.4Zm14.156-4.369H69.37v-1.32h-.954v1.32h-.864v.864h.864v2c0,1,.408,1.591,1.5,1.591a2.565,2.565,0,0,0,1.182-.318l-.276-.822a1.526,1.526,0,0,1-.822.228c-.456,0-.636-.276-.636-.726v-1.956h1.548v-.864Zm8.1-.1a1.293,1.293,0,0,0-1.14.636v-.546h-.954v4.369h.954v-2.46c0-.726.318-1.14.912-1.14a2.926,2.926,0,0,1,.594.09l.276-.912a3.784,3.784,0,0,0-.642-.037Zm-12.242.456A3.131,3.131,0,0,0,65,660.933c-1.092,0-1.819.546-1.819,1.41,0,.726.546,1.14,1.5,1.272l.456.048c.5.09.774.228.774.456,0,.318-.366.546-1,.546a2.517,2.517,0,0,1-1.458-.456l-.456.726a3.2,3.2,0,0,0,1.866.546c1.272,0,2-.594,2-1.41,0-.774-.594-1.182-1.5-1.32l-.456-.048c-.408-.048-.726-.138-.726-.408,0-.318.318-.5.822-.5a3.284,3.284,0,0,1,1.368.366l.4-.774Zm25.391-.456a1.293,1.293,0,0,0-1.14.636v-.546h-.954v4.369h.954v-2.46c0-.726.318-1.14.912-1.14a2.926,2.926,0,0,1,.594.09l.276-.9a2.907,2.907,0,0,0-.642-.048Zm-12.195,2.28a2.186,2.186,0,0,0,2.322,2.275,2.286,2.286,0,0,0,1.548-.5l-.456-.774a1.823,1.823,0,0,1-1.14.408,1.292,1.292,0,0,1-1.32-1.41,1.339,1.339,0,0,1,1.32-1.41,1.866,1.866,0,0,1,1.14.408l.456-.774a2.259,2.259,0,0,0-1.548-.5,2.184,2.184,0,0,0-2.322,2.275Zm8.828,0v-2.184h-.954v.546a1.649,1.649,0,0,0-1.368-.636,2.276,2.276,0,0,0,0,4.549,1.543,1.543,0,0,0,1.368-.636v.546H88.8v-2.184Zm-3.5,0a1.323,1.323,0,1,1,2.64,0,1.323,1.323,0,1,1-2.64,0Zm-11.421-2.28a2.276,2.276,0,0,0,.048,4.549,2.773,2.773,0,0,0,1.776-.594l-.456-.684a2.167,2.167,0,0,1-1.272.456,1.23,1.23,0,0,1-1.32-1.044h3.229v-.366a2.015,2.015,0,0,0-2-2.317Zm0,.822a1.063,1.063,0,0,1,1.092,1.044H72.694a1.15,1.15,0,0,1,1.182-1.044Zm23.711,1.458V659.3h-.954v2.275a1.649,1.649,0,0,0-1.368-.636,2.276,2.276,0,0,0,0,4.549,1.543,1.543,0,0,0,1.368-.636v.546h.954v-2.184Zm-3.5,0a1.323,1.323,0,1,1,2.64,0,1.323,1.323,0,1,1-2.64,0Zm-31.95,0v-2.184h-.954v.546a1.649,1.649,0,0,0-1.368-.636,2.276,2.276,0,0,0,0,4.549,1.543,1.543,0,0,0,1.368-.636v.546h.954v-2.184Zm-3.547,0a1.323,1.323,0,1,1,2.64,0,1.323,1.323,0,1,1-2.64,0Z" transform="translate(-47.16 -624.344)"/>
  <g id="Grupo_18673" data-name="Grupo 18673">
    <rect id="rect19" width="14.337" height="25.757" transform="translate(19.299 3.505)" fill="#ff5a00"/>
    <path id="XMLID_330_" d="M20.254,16.383A16.429,16.429,0,0,1,26.489,3.5,16.378,16.378,0,1,0,16.383,32.766a16.3,16.3,0,0,0,10.106-3.5A16.35,16.35,0,0,1,20.254,16.383Z" fill="#eb001b"/>
    <path id="path22" d="M526.089,16.383A16.367,16.367,0,0,1,499.6,29.262a16.418,16.418,0,0,0,0-25.757,16.367,16.367,0,0,1,26.489,12.879Z" transform="translate(-473.111)" fill="#f79e1b"/>
  </g>
</svg>
