<svg xmlns="http://www.w3.org/2000/svg" width="119.458" height="31.124" viewBox="0 0 119.458 31.124">
  <g id="Grupo_18917" data-name="Grupo 18917" transform="translate(-129.148 -79.051)">
    <path id="Trazado_62410" data-name="Trazado 62410" d="M172.894,93.356c0-7.881-9.792-14.305-21.872-14.305s-21.871,6.425-21.871,14.305c0,.2,0,.767,0,.838,0,8.361,8.559,15.133,21.871,15.133,13.394,0,21.874-6.769,21.874-15.131v-.839" fill="#253e8b"/>
    <path id="Trazado_62411" data-name="Trazado 62411" d="M173.9,95.185c0,7.43-9.415,13.454-21.03,13.454s-21.03-6.023-21.03-13.454,9.415-13.455,21.03-13.455,21.03,6.024,21.03,13.455" transform="translate(-1.844 -1.835)" fill="#00aeef"/>
    <path id="Trazado_62412" data-name="Trazado 62412" d="M176.139,100.378c-.011.021-.22.239-.085.412a2.628,2.628,0,0,0,2.394.434,6.91,6.91,0,0,0,2.175-1.376,8.706,8.706,0,0,1,2.482-1.583,2.837,2.837,0,0,1,1.81-.047,5.548,5.548,0,0,1,1.651.963c1.439,1.082,7.224,6.133,8.224,7.005a49.918,49.918,0,0,1,9.247-2.976,11.462,11.462,0,0,0-4.392-6.907c-3.333,1.4-7.407,2.132-11.389.186a11.017,11.017,0,0,0-4.3-.978c-3.162.073-4.531,1.441-5.979,2.889l-1.835,1.978" transform="translate(-32.096 -11.273)" fill="#fff"/>
    <path id="Trazado_62413" data-name="Trazado 62413" d="M164.645,107.5c-.068-.061-6.8-5.955-8.328-7.1a3.736,3.736,0,0,0-1.89-.9,2.552,2.552,0,0,0-.9.086,8.132,8.132,0,0,0-2.463,1.467,7.032,7.032,0,0,1-2.4,1.487,3.9,3.9,0,0,1-2.65-.4,1.177,1.177,0,0,1-.439-.483.811.811,0,0,1,.225-.88l1.858-2.011c.217-.216.433-.431.656-.644a12.159,12.159,0,0,0-1.694.381,7.382,7.382,0,0,1-1.977.369,18.581,18.581,0,0,1-2.017-.316,30.044,30.044,0,0,1-5.364-1.938,11.89,11.89,0,0,0-4.921,7.136c.38.1.992.283,1.249.34,5.979,1.329,7.841,2.7,8.18,2.986a1.979,1.979,0,0,1,3.1.182,2.26,2.26,0,0,1,1.425-.5,2.677,2.677,0,0,1,.855.15,1.967,1.967,0,0,1,1.2,1.087,1.989,1.989,0,0,1,.832-.176,2.5,2.5,0,0,1,.994.219,2.122,2.122,0,0,1,1.174,2.372,2.207,2.207,0,0,1,.238-.012,2.374,2.374,0,0,1,2.371,2.372,2.334,2.334,0,0,1-.285,1.119,3.757,3.757,0,0,0,2.059.551,1.314,1.314,0,0,0,.964-.42c.059-.083.122-.182.064-.252L155.08,111.9s-.278-.263-.186-.364.267.046.388.147c.859.717,1.908,1.8,1.908,1.8.017.012.087.149.475.219a1.755,1.755,0,0,0,1.333-.311,2,2,0,0,0,.293-.3c-.006,0-.012.014-.019.016a.9.9,0,0,0-.048-1.112l-1.97-2.212s-.28-.261-.186-.365.267.047.392.149c.623.522,1.5,1.406,2.35,2.233a1.6,1.6,0,0,0,1.889-.065,1.353,1.353,0,0,0,.7-1.234,1.405,1.405,0,0,0-.416-.822l-2.69-2.705s-.284-.243-.183-.365c.083-.1.267.045.388.147.857.717,3.178,2.845,3.178,2.845a1.631,1.631,0,0,0,1.825-.037,1.22,1.22,0,0,0,.6-.965,1.426,1.426,0,0,0-.453-1.1" transform="translate(-2.186 -12.034)" fill="#fff"/>
    <path id="Trazado_62414" data-name="Trazado 62414" d="M172.121,133.364a5.933,5.933,0,0,0-.933.207c-.033-.022.025-.19.064-.287s.59-1.749-.749-2.324a1.58,1.58,0,0,0-1.867.279c-.057.059-.081.054-.089-.021a1.477,1.477,0,0,0-1.037-1.374,2.029,2.029,0,0,0-2.284.815,1.46,1.46,0,1,0-.434,1.245c.009.007.012.021.007.049A1.932,1.932,0,0,0,166,134.173a1.442,1.442,0,0,0,1.415-.219c.116-.082.135-.048.118.062a1.377,1.377,0,0,0,1.033,1.478,1.309,1.309,0,0,0,1.533-.284c.13-.119.166-.1.172.083a1.846,1.846,0,1,0,1.845-1.929" transform="translate(-22.713 -34.471)" fill="#fff"/>
    <path id="Trazado_62415" data-name="Trazado 62415" d="M151.321,112.2a1.7,1.7,0,0,1-1.711-1.634c0-.079-.01-.288-.186-.288a.326.326,0,0,0-.209.109,1.2,1.2,0,0,1-.839.38,1.478,1.478,0,0,1-.554-.12c-.977-.4-.991-1.066-.952-1.336a.246.246,0,0,0-.034-.205l-.06-.053h-.06a.293.293,0,0,0-.17.069,1.43,1.43,0,0,1-.83.294,1.282,1.282,0,0,1-.463-.091,1.792,1.792,0,0,1-1.12-2.078.179.179,0,0,0-.057-.17l-.091-.075-.085.081a1.322,1.322,0,0,1-.922.374,1.335,1.335,0,1,1,1.318-1.5l.046.358.2-.3a1.955,1.955,0,0,1,1.553-.85,1.934,1.934,0,0,1,.58.091,1.349,1.349,0,0,1,.945,1.257c.014.174.138.182.163.182a.216.216,0,0,0,.154-.081,1.349,1.349,0,0,1,.982-.413,1.876,1.876,0,0,1,.736.165c1.257.539.687,2.136.681,2.153-.108.265-.113.382-.011.449l.049.023h.037a.879.879,0,0,0,.242-.064,2.173,2.173,0,0,1,.671-.148h0a1.714,1.714,0,1,1,0,3.428Zm13.312-7.695c-2.075-1.81-6.87-5.979-8.169-6.955a5.705,5.705,0,0,0-1.692-.985,2.8,2.8,0,0,0-.832-.129,3.488,3.488,0,0,0-1.055.177,8.683,8.683,0,0,0-2.485,1.573l-.042.033a6.841,6.841,0,0,1-2.121,1.35,3.579,3.579,0,0,1-.785.088,2.014,2.014,0,0,1-1.476-.474c-.037-.048-.014-.123.073-.233l.012-.014,1.825-1.967c1.429-1.43,2.779-2.779,5.888-2.85l.155,0a11.017,11.017,0,0,1,4.085.967,12.652,12.652,0,0,0,5.569,1.335,14.538,14.538,0,0,0,6.114-1.465c-.238-.2-.485-.394-.739-.585a13.477,13.477,0,0,1-5.369,1.22,11.86,11.86,0,0,1-5.212-1.254,11.728,11.728,0,0,0-4.448-1.051l-.175,0a7.721,7.721,0,0,0-5.071,1.8,9.991,9.991,0,0,0-2.529.462,6.911,6.911,0,0,1-1.783.341c-.229,0-.64-.021-.677-.022a34.719,34.719,0,0,1-6.411-1.776c-.261.185-.512.375-.757.57a31.7,31.7,0,0,0,6.95,2.009c.285.02.59.052.894.052a7.6,7.6,0,0,0,2.012-.373c.387-.11.814-.228,1.264-.314-.121.118-.24.237-.36.357L145.433,98.4a.931.931,0,0,0-.255,1.025,1.3,1.3,0,0,0,.489.542,3.858,3.858,0,0,0,1.968.5,3.611,3.611,0,0,0,.785-.083,7.121,7.121,0,0,0,2.457-1.511,8.164,8.164,0,0,1,2.415-1.445,2.765,2.765,0,0,1,.672-.092,1.278,1.278,0,0,1,.175.011,3.612,3.612,0,0,1,1.827.871c1.522,1.143,8.258,7.036,8.325,7.1a1.3,1.3,0,0,1,.4.99,1.081,1.081,0,0,1-.538.86,1.642,1.642,0,0,1-.884.274,1.467,1.467,0,0,1-.782-.225c-.025-.021-2.332-2.137-3.181-2.848a.715.715,0,0,0-.4-.213.22.22,0,0,0-.176.084c-.133.165.016.393.193.543l2.7,2.709a1.282,1.282,0,0,1,.371.731,1.228,1.228,0,0,1-.64,1.118,1.738,1.738,0,0,1-.955.316,1.394,1.394,0,0,1-.769-.234l-.386-.382c-.706-.7-1.436-1.414-1.97-1.86a.717.717,0,0,0-.4-.208.228.228,0,0,0-.17.071c-.061.068-.1.19.049.392a1.31,1.31,0,0,0,.135.151l1.968,2.211a.755.755,0,0,1,.044.943l-.07.087a1.883,1.883,0,0,1-.182.177,1.572,1.572,0,0,1-.961.3,1.472,1.472,0,0,1-.266-.023.668.668,0,0,1-.389-.164L157,111.1c-.107-.111-1.1-1.124-1.92-1.808a.675.675,0,0,0-.382-.205.235.235,0,0,0-.179.08c-.162.177.081.443.185.542l1.679,1.85a.419.419,0,0,1-.064.113c-.06.083-.263.287-.872.363a1.63,1.63,0,0,1-.223.014,3.843,3.843,0,0,1-1.642-.487,2.5,2.5,0,0,0-2.264-3.57h-.09a2.223,2.223,0,0,0-1.27-2.35,2.64,2.64,0,0,0-1.046-.23,2.132,2.132,0,0,0-.767.138,2.107,2.107,0,0,0-1.226-1.04,2.769,2.769,0,0,0-.9-.159,2.368,2.368,0,0,0-1.4.448,2.107,2.107,0,0,0-3.141-.176c-.523-.4-2.594-1.716-8.14-2.975-.268-.06-.883-.238-1.261-.347a8.926,8.926,0,0,0-.143.91s1.023.245,1.225.29c5.665,1.258,7.536,2.566,7.854,2.813a2.1,2.1,0,0,0-.164.815,2.127,2.127,0,0,0,2.122,2.124,2.15,2.15,0,0,0,.389-.036,2.478,2.478,0,0,0,1.6,1.85,2.129,2.129,0,0,0,.757.146,1.957,1.957,0,0,0,.484-.06,2.464,2.464,0,0,0,2.15,1.4,1.869,1.869,0,0,0,.648-.116,2.5,2.5,0,0,0,4.107.793,4.7,4.7,0,0,0,2.118.633,2.647,2.647,0,0,0,.321-.021,1.937,1.937,0,0,0,1.437-.7,1.071,1.071,0,0,0,.089-.144,2.414,2.414,0,0,0,.678.107,2.284,2.284,0,0,0,1.37-.491,1.88,1.88,0,0,0,.807-1.174l0-.017a2.267,2.267,0,0,0,.458.047,2.545,2.545,0,0,0,1.407-.447,2.03,2.03,0,0,0,1.01-1.808,2.236,2.236,0,0,0,.463.048,2.427,2.427,0,0,0,1.318-.405,1.924,1.924,0,0,0,.916-1.492,2,2,0,0,0-.29-1.2,54.476,54.476,0,0,1,8.738-2.736,8.946,8.946,0,0,0-.122-.907,50.172,50.172,0,0,0-9.2,2.991" transform="translate(-1.913 -9.752)" fill="#253e8b"/>
    <path id="Trazado_62416" data-name="Trazado 62416" d="M484.363,97.975a2.166,2.166,0,0,1-3.3,0,4.345,4.345,0,0,1,0-4.332,2.173,2.173,0,0,1,3.3,0,4.359,4.359,0,0,1,0,4.332ZM486.32,92.3a5.1,5.1,0,0,0-7.19,0,5.8,5.8,0,0,0,0,7.028,5.154,5.154,0,0,0,7.19,0,5.806,5.806,0,0,0,0-7.028" transform="translate(-238.899 -8.059)" fill="#253e8b"/>
    <path id="Trazado_62417" data-name="Trazado 62417" d="M423.824,96.918a1.964,1.964,0,0,1-.7,1.7,2.564,2.564,0,0,1-1.481.466,1.35,1.35,0,0,1-.861-.28,1.09,1.09,0,0,1-.353-.91A1.122,1.122,0,0,1,421,96.849a3.685,3.685,0,0,1,1.129-.333l.559-.1a4.14,4.14,0,0,0,.657-.17,2.492,2.492,0,0,0,.475-.236Zm1.244-5.346a6.01,6.01,0,0,0-2.748-.61,4.035,4.035,0,0,0-3.355,1.239,3.607,3.607,0,0,0-.693,2.023h2.368a1.774,1.774,0,0,1,.349-.86,1.563,1.563,0,0,1,1.247-.431,2.536,2.536,0,0,1,1.193.22.823.823,0,0,1,.4.795.737.737,0,0,1-.529.7,3.9,3.9,0,0,1-.981.216l-.839.1a5.966,5.966,0,0,0-2.167.6,2.668,2.668,0,0,0-1.344,2.5,2.586,2.586,0,0,0,.834,2.062,3.326,3.326,0,0,0,2.118.729c5.355.239,5.295-2.822,5.344-3.46V93.879a2.349,2.349,0,0,0-1.2-2.308" transform="translate(-197.822 -8.157)" fill="#253e8b"/>
    <path id="Trazado_62418" data-name="Trazado 62418" d="M391.442,93.126a1.6,1.6,0,0,1,1.353.567,2.1,2.1,0,0,1,.372.945h2.643a3.618,3.618,0,0,0-1.4-2.791,5.386,5.386,0,0,0-3.037-.789,4.436,4.436,0,0,0-3.424,1.339,5.306,5.306,0,0,0-1.241,3.746,5.227,5.227,0,0,0,1.123,3.472,4.323,4.323,0,0,0,3.5,1.338,4.223,4.223,0,0,0,3.6-1.605,3.975,3.975,0,0,0,.85-2.111h-2.633a2.225,2.225,0,0,1-.463,1.2,1.582,1.582,0,0,1-1.287.463,1.721,1.721,0,0,1-1.742-1.168,4.461,4.461,0,0,1-.253-1.65,4.874,4.874,0,0,1,.253-1.729,1.777,1.777,0,0,1,1.786-1.228" transform="translate(-176.408 -8.224)" fill="#253e8b"/>
    <path id="Trazado_62419" data-name="Trazado 62419" d="M373.355,91.059c-5.427,0-5.105,4.805-5.105,4.805v4.88h2.461V96.166a3.754,3.754,0,0,1,.283-1.667,2.03,2.03,0,0,1,1.983-.961c.074,0,.171,0,.292.01s.256.016.412.034V91.077c-.11-.007-.18-.01-.21-.014s-.07,0-.116,0" transform="translate(-163.764 -8.224)" fill="#253e8b"/>
    <path id="Trazado_62420" data-name="Trazado 62420" d="M338.343,93.609a1.946,1.946,0,0,1,1.46-.534,2.137,2.137,0,0,1,1.451.5,2.039,2.039,0,0,1,.651,1.477h-4.213A2.529,2.529,0,0,1,338.343,93.609Zm3.31,4.585a1.783,1.783,0,0,1-.337.373,2.1,2.1,0,0,1-1.376.373,2.335,2.335,0,0,1-1.311-.315,2.216,2.216,0,0,1-1-1.954h6.814a12.258,12.258,0,0,0-.082-1.856,4.6,4.6,0,0,0-.745-1.934A3.81,3.81,0,0,0,342,91.5a5.317,5.317,0,0,0-2.2-.437,4.509,4.509,0,0,0-3.345,1.3,5.065,5.065,0,0,0-1.29,3.727,4.531,4.531,0,0,0,1.429,3.745,5.1,5.1,0,0,0,3.295,1.152,4.546,4.546,0,0,0,3.519-1.365,3.311,3.311,0,0,0,.854-1.42h-2.612" transform="translate(-141.108 -8.224)" fill="#253e8b"/>
    <path id="Trazado_62421" data-name="Trazado 62421" d="M302.788,100.67h-2.25V95.006a1.58,1.58,0,0,0-1.654-1.748,1.657,1.657,0,0,0-1.7,1.748v5.664h-2.251V95.006a1.566,1.566,0,0,0-1.637-1.748,1.648,1.648,0,0,0-1.706,1.748v5.664h-2.25V95.06a3.86,3.86,0,0,1,3.956-4.107,3.462,3.462,0,0,1,2.8,1.306,3.584,3.584,0,0,1,2.8-1.306c2.455,0,3.9,1.7,3.9,4.107v5.61" transform="translate(-109.716 -8.152)" fill="#253e8b"/>
    <path id="Trazado_62422" data-name="Trazado 62422" d="M452.855,91.706a1.8,1.8,0,0,1-1.579.773,1.726,1.726,0,0,1-1.548-.777,3.967,3.967,0,0,1-.509-2.137,3.754,3.754,0,0,1,.5-2.012,1.715,1.715,0,0,1,1.574-.811,1.869,1.869,0,0,1,1.237.446,3.222,3.222,0,0,1,.866,2.519A3.408,3.408,0,0,1,452.855,91.706Zm2.954-10.059s-2.481-.265-2.481,1.728v2.638a2.954,2.954,0,0,0-1.072-1.034,3.015,3.015,0,0,0-1.511-.374,3.587,3.587,0,0,0-2.947,1.374,6.044,6.044,0,0,0-1.1,3.831,5.1,5.1,0,0,0,1.119,3.4,4.749,4.749,0,0,0,3.512,1.27c4.534,0,4.481-3.889,4.481-3.889l0-8.948" transform="translate(-217.495 -1.77)" fill="#253e8b"/>
    <path id="Trazado_62423" data-name="Trazado 62423" d="M345.178,139.382a3.608,3.608,0,0,0-.544-2.143,1.808,1.808,0,0,0-1.557-.751,1.779,1.779,0,0,0-1.521.751,3.63,3.63,0,0,0-.5,2.143,3.208,3.208,0,0,0,.543,2.037,1.8,1.8,0,0,0,1.556.751,1.732,1.732,0,0,0,1.484-.751,3.4,3.4,0,0,0,.544-2.037m-4.127,6.663a1.154,1.154,0,0,1-.364.857,1.186,1.186,0,0,1-.868.358H338.59V138.7a3.947,3.947,0,0,1,1.483-3.41,4.952,4.952,0,0,1,3.222-.91,4.322,4.322,0,0,1,3.224,1.333,5.26,5.26,0,0,1,1.156,3.559,5.773,5.773,0,0,1-1.085,3.645,3.41,3.41,0,0,1-2.789,1.356,3.741,3.741,0,0,1-1.591-.32,2.7,2.7,0,0,1-1.158-1.109v3.2" transform="translate(-143.451 -37.898)" fill="#00aeef"/>
    <path id="Trazado_62424" data-name="Trazado 62424" d="M401.088,139.307q0,2.463,1.423,2.731a1.94,1.94,0,0,0,2.1-.662,2.661,2.661,0,0,0,.463-1.229,5.211,5.211,0,0,0,.017-1.659,3.288,3.288,0,0,0-.587-1.464,1.559,1.559,0,0,0-1.35-.642,1.642,1.642,0,0,0-1.636.891,4.653,4.653,0,0,0-.427,2.036m4.054,4.1v-.6a2.719,2.719,0,0,1-1.726,1.248,3.509,3.509,0,0,1-2.149-.18,3.982,3.982,0,0,1-1.833-1.586,5.474,5.474,0,0,1-.763-3.054,5.9,5.9,0,0,1,1.012-3.585,3.885,3.885,0,0,1,3.254-1.375,4.516,4.516,0,0,1,3.164.928,3.971,3.971,0,0,1,1.457,3.426v5.034a4.2,4.2,0,0,1-4.622,4.319,4.052,4.052,0,0,1-4.053-3.07h2.6a1.986,1.986,0,0,0,2.042.908,1.948,1.948,0,0,0,1.07-.7,2.918,2.918,0,0,0,.55-1.715" transform="translate(-184.603 -37.822)" fill="#00aeef"/>
    <path id="Trazado_62425" data-name="Trazado 62425" d="M375.316,140.457a1.968,1.968,0,0,1-.7,1.7,2.569,2.569,0,0,1-1.481.464,1.345,1.345,0,0,1-.861-.279,1.089,1.089,0,0,1-.354-.91,1.119,1.119,0,0,1,.58-1.04,3.643,3.643,0,0,1,1.127-.335l.559-.1a4.068,4.068,0,0,0,.657-.17,2.483,2.483,0,0,0,.475-.235Zm1.244-5.346a6,6,0,0,0-2.747-.611,4.038,4.038,0,0,0-3.357,1.24,3.6,3.6,0,0,0-.692,2.023h2.369a1.761,1.761,0,0,1,.348-.861,1.562,1.562,0,0,1,1.246-.429,2.542,2.542,0,0,1,1.193.219.827.827,0,0,1,.406.8.739.739,0,0,1-.529.7,3.883,3.883,0,0,1-.981.215l-.839.1a6.016,6.016,0,0,0-2.167.6,2.671,2.671,0,0,0-1.345,2.5,2.587,2.587,0,0,0,.836,2.062,3.325,3.325,0,0,0,2.118.729c5.353.239,5.294-2.823,5.343-3.46v-3.524a2.344,2.344,0,0,0-1.2-2.306" transform="translate(-164.598 -37.978)" fill="#00aeef"/>
    <path id="Trazado_62426" data-name="Trazado 62426" d="M436.275,141.347a2.163,2.163,0,0,1-3.3,0,4.332,4.332,0,0,1,0-4.33,2.175,2.175,0,0,1,3.3,0,4.363,4.363,0,0,1,0,4.33m1.957-5.673a5.1,5.1,0,0,0-7.191,0,5.8,5.8,0,0,0,0,7.027,5.155,5.155,0,0,0,7.191,0,5.814,5.814,0,0,0,0-7.027" transform="translate(-205.961 -37.767)" fill="#00aeef"/>
  </g>
</svg>
