<svg id="Grupo_1613" data-name="Grupo 1613" xmlns="http://www.w3.org/2000/svg" width="35.961" height="35.961" viewBox="0 0 35.961 35.961">
  <ellipse id="Elipse_32" data-name="Elipse 32" cx="17.981" cy="17.981" rx="17.981" ry="17.981" transform="translate(0)" fill="#fff"/>
  <g id="Grupo_1698" data-name="Grupo 1698" transform="translate(0.876 0.876)">
    <ellipse id="Elipse_33" data-name="Elipse 33" cx="17.104" cy="17.104" rx="17.104" ry="17.104" transform="translate(0 0)" fill="#ffd300"/>
    <g id="Grupo_1697" data-name="Grupo 1697" transform="translate(2.055 5.621)">
      <path id="Trazado_1507" data-name="Trazado 1507" d="M807.668,503.291a.543.543,0,0,0-.3-.01l-5.487,1.407-2.6-9.626a.544.544,0,0,0-.663-.384l-15.663,4.1a.544.544,0,0,0-.39.66l2.41,9.541-5.29,1.405a.544.544,0,0,0-.4.484.534.534,0,0,0,0,.091.544.544,0,0,0,.325.462l16.7,7.313a.544.544,0,0,0,.651-.168l10.988-14.409a.544.544,0,0,0-.271-.861Z" transform="translate(-777.958 -494.659)" fill="#fff"/>
      <g id="Grupo_1693" data-name="Grupo 1693" transform="translate(1.859 0.544)">
        <path id="Trazado_1508" data-name="Trazado 1508" d="M823.8,520.128l.008-.011-6.007,1.54-2.743-10.145-15.663,4.1,2.541,10.062-5.81,1.543.018.008-.017,0,16.7,7.313,11-14.418Z" transform="translate(-796.124 -511.513)" fill="#d40072" fill-rule="evenodd"/>
      </g>
      <path id="Trazado_1509" data-name="Trazado 1509" d="M767.752,586.009l0-.016-.069-.227a.609.609,0,0,0-.04-.1l-.134-.265a3.145,3.145,0,0,0-.351-.552,3.077,3.077,0,0,0-.439-.445l-.01-.008a3.851,3.851,0,0,0-1.116-.614,5.266,5.266,0,0,0-3.06.022,6.059,6.059,0,0,0-2.245,1.058,3.788,3.788,0,0,0-1.262,1.6q-.016.044-.032.088a2.751,2.751,0,0,0-.677-.528,3.633,3.633,0,0,0-1.615-.434,5.243,5.243,0,0,0-.938.025,7.589,7.589,0,0,0-.955.191,6.636,6.636,0,0,0-1.746.7q-.094.056-.185.117a.616.616,0,0,0-.211.148,4.025,4.025,0,0,0-.846.842,3.406,3.406,0,0,0-.669,1.644l-1.349-1.637a.616.616,0,0,0-.63-.2l-2.446.634a.616.616,0,0,0-.446.461l-.205.914a2.113,2.113,0,0,0-.419-.264,3.123,3.123,0,0,0-1.4-.268,6.638,6.638,0,0,0-1.759.254l-3.5.908a.616.616,0,0,0-.445.736l1.249,5.372a.615.615,0,0,0,.6.476.609.609,0,0,0,.155-.02l7.46-1.934a.616.616,0,0,0,.457-.519l.046-.37,1.583-.41.213.3a.616.616,0,0,0,.655.236l2.385-.618a.615.615,0,0,0,.431-.406c.005-.016.01-.032.014-.048a5.276,5.276,0,0,0,2.376-.119,4.772,4.772,0,0,0,1.749-.817l0,0a.615.615,0,0,0,.507.091l1.523-.395a.616.616,0,0,0,.446-.734s.366-.3.656-.195a5.284,5.284,0,0,0,3.093-.017,6.021,6.021,0,0,0,2.239-1.061,3.8,3.8,0,0,0,1.281-1.7A3.124,3.124,0,0,0,767.752,586.009Z" transform="translate(-738.529 -580.697)" fill="#fff"/>
      <g id="Grupo_1694" data-name="Grupo 1694" transform="translate(0.57 3.379)">
        <path id="Trazado_1510" data-name="Trazado 1510" d="M1393.274,601.4l-.068-.227-.141-.283a2.636,2.636,0,0,0-.293-.463,2.579,2.579,0,0,0-.368-.372,3.344,3.344,0,0,0-.967-.533,4.781,4.781,0,0,0-2.763.034,5.557,5.557,0,0,0-2.058.966,3.289,3.289,0,0,0-1.1,1.381,2.8,2.8,0,0,0-.113,1.552l.161.462.068.2.006.014a2.721,2.721,0,0,0,1.6,1.324,3.6,3.6,0,0,0,1.213.193,6.341,6.341,0,0,0,1.581-.223,5.512,5.512,0,0,0,2.052-.968A3.3,3.3,0,0,0,1393.2,603,2.625,2.625,0,0,0,1393.274,601.4Zm-4.263-.32a1.373,1.373,0,0,1,.928.03,1.246,1.246,0,0,1,.589.6,1.84,1.84,0,0,1,.151,1.333,1.24,1.24,0,0,1-1.007.873,1.159,1.159,0,0,1-1.491-.617,2.065,2.065,0,0,1-.048-1.612,1.3,1.3,0,0,1,.877-.6Z" transform="translate(-1365.032 -599.337)" fill="#004c99"/>
        <path id="Trazado_1511" data-name="Trazado 1511" d="M772.878,664.488l.284,1.2,1.069-.307a1.443,1.443,0,0,1-.332.563,1.739,1.739,0,0,1-.684.353c-.782.2-1.3.025-1.592-.544a2.1,2.1,0,0,1-.079-1.647,1.294,1.294,0,0,1,.877-.605,1.086,1.086,0,0,1,1.283.315l.042.06,2.472-.641-.074-.146a2.2,2.2,0,0,0-.91-.946,3.135,3.135,0,0,0-1.4-.37,4.73,4.73,0,0,0-.846.022,7.087,7.087,0,0,0-.889.178,6.132,6.132,0,0,0-1.613.648,3.7,3.7,0,0,0-1.094.971,2.839,2.839,0,0,0-.508,2.418l.066.291.157.341q.046.091.1.176l-2.678-3.25-2.575.667-.485,2.159a1.908,1.908,0,0,0-.139-.377,1.558,1.558,0,0,0-.732-.72,2.629,2.629,0,0,0-1.181-.217,6.212,6.212,0,0,0-1.632.238l-3.6.934,1.3,5.58,2.6-.675-.4-1.675,1.127-.292A4.47,4.47,0,0,0,763.11,668l-.564,2.512,2.573-.667.1-.784,2.255-.585.46.639,2.617-.679-.914-1.109a2.836,2.836,0,0,0,1.048.591,4.477,4.477,0,0,0,2.525-.013,3.781,3.781,0,0,0,1.983-1.125l.191.419,1.709-.443-.728-3.175Zm-6.058,2.938-1.528.4.313-2.14Zm-7.475.6-.286-1.089s.54-.142.864-.229c.466-.125.815-.155.993.13a.607.607,0,0,1-.03.593,1.154,1.154,0,0,1-.613.355C760.044,667.852,759.345,668.022,759.345,668.022Z" transform="translate(-756.186 -659.747)" fill="#004c99"/>
      </g>
      <g id="Grupo_1695" data-name="Grupo 1695" transform="translate(9.475 11.338)">
        <path id="Trazado_1512" data-name="Trazado 1512" d="M1155.7,849.827a5.227,5.227,0,0,1,.336-.424,12.03,12.03,0,0,0,1.551-2.226c.134-.258.337-.663.448-.933a.192.192,0,0,0-.047-.227.316.316,0,0,0-.509-.026,7.014,7.014,0,0,0-2.324,3.473.523.523,0,0,1-.11.205c-.423.459-.85.913-1.278,1.367a.516.516,0,0,1-.137.1c-.038.02-.1.04-.126.023s-.035-.081-.043-.125a.174.174,0,0,1,.009-.075c.075-.278.135-.561.232-.831s.23-.513.349-.769c.03-.065.056-.138-.049-.142a.549.549,0,0,0-.591.291,1.9,1.9,0,0,1-.178.334c-.42.5-.84,1-1.28,1.482a2.2,2.2,0,0,1-1,.646c-.113.034-.179,0-.189-.118a.954.954,0,0,1,.016-.289,2.692,2.692,0,0,1,.682-1.273,1.34,1.34,0,0,1,.528-.362.253.253,0,0,1-.022.153c-.11.151-.232.294-.344.444a.531.531,0,0,0-.052.124c.049.013.1.048.146.035a1.542,1.542,0,0,0,.348-.143,1,1,0,0,0,.514-.7.276.276,0,0,0-.306-.354.425.425,0,0,0-.086.007,2.792,2.792,0,0,0-1.238.749,2.229,2.229,0,0,0-.226.275q-.639.755-1.281,1.508a2.7,2.7,0,0,1-.2.19c-.005-.034-.012-.049-.008-.062a4.7,4.7,0,0,1,.149-.5c.142-.347.3-.688.452-1.032a.147.147,0,0,0-.028-.2.279.279,0,0,0-.381.008c-.127-.169-.281-.129-.429-.037a2.523,2.523,0,0,0-.387.274,4.862,4.862,0,0,0-1.246,1.878,1.233,1.233,0,0,0-.11.6.356.356,0,0,0,.556.267,1.133,1.133,0,0,0,.233-.207c.193-.269.374-.547.556-.824a.461.461,0,0,0,.037-.133l.052.022c.009.052.015.1.026.155a3.089,3.089,0,0,0,.091.411c.08.23.252.273.421.1.19-.2.365-.409.535-.622.148-.185.281-.381.428-.584.008.1.008.181.021.262.079.477.36.725.861.489a2.743,2.743,0,0,0,.478-.291,6.745,6.745,0,0,0,1.181-1.214c.07-.088.138-.176.226-.289-.022.123-.04.214-.054.306a.92.92,0,0,0,.034.469.47.47,0,0,0,.527.336.79.79,0,0,0,.532-.261c.269-.306.524-.623.782-.938.074-.091.138-.19.2-.277.043.152.077.3.13.446a.509.509,0,0,0,.8.323,1.43,1.43,0,0,0,.4-.307,16.553,16.553,0,0,0,1.691-2.367c.06-.1.039-.155-.068-.234l-.073.089c-.384.469-.762.943-1.154,1.405a4.247,4.247,0,0,1-.832.8c-.157.106-.242.074-.293-.106A.633.633,0,0,1,1155.7,849.827Zm1.615-3.176a7.522,7.522,0,0,1-1.369,2.289A9.3,9.3,0,0,1,1157.316,846.651Zm-9.3,5.985-.038-.018a.679.679,0,0,1,.023-.14,3.863,3.863,0,0,1,1.02-1.548,1.767,1.767,0,0,1,.249-.16l.028.037A17.585,17.585,0,0,1,1148.015,852.635Z" transform="translate(-1143.534 -845.876)" fill="#890c6c"/>
        <path id="Trazado_1513" data-name="Trazado 1513" d="M1036.349,915.009a1.368,1.368,0,0,0-.15-.225.326.326,0,0,0-.172-.074,1.248,1.248,0,0,0-.278-.02,4.073,4.073,0,0,0-1.069.249l-.3.1a.867.867,0,0,1,.037-.081q.338-.531.677-1.061c.109-.169.108-.18-.074-.3.111-.043.206-.087.306-.118q1.072-.336,2.146-.667c.179-.055.359-.106.538-.162a.292.292,0,0,0,.076-.057.32.32,0,0,0-.063-.072,1.661,1.661,0,0,0-.809-.273,4.206,4.206,0,0,0-1.177.139,13.314,13.314,0,0,0-2.291.823c-.163.073-.325.151-.5.232l.073-.172a.958.958,0,0,0-.193.053c-.2.109-.4.218-.592.342a3.053,3.053,0,0,0-.412.325.213.213,0,0,0-.012.329.355.355,0,0,0,.369.141,6.084,6.084,0,0,0,.745-.208c.437-.155.868-.328,1.3-.493a1.3,1.3,0,0,1,.134-.036l.01.021c-.068.084-.142.164-.2.252-.293.422-.586.843-.872,1.269a.61.61,0,0,1-.276.233,4.924,4.924,0,0,0-.491.245.168.168,0,0,0-.045.283,1.407,1.407,0,0,0,.151.167.151.151,0,0,1,.028.213,2.938,2.938,0,0,0-.385,1.459.336.336,0,0,0,.053.21.706.706,0,0,0,.488.177c.016-.14.02-.267.047-.389a2.794,2.794,0,0,1,.12-.374c.137-.365.285-.725.415-1.092a.65.65,0,0,1,.376-.4q1.049-.444,2.1-.887A1.911,1.911,0,0,0,1036.349,915.009Z" transform="translate(-1032.034 -910.103)" fill="#890c6c"/>
        <path id="Trazado_1514" data-name="Trazado 1514" d="M1210.345,923.8a.172.172,0,0,0,.03.143.144.144,0,0,0,.135,0,6.181,6.181,0,0,0,.57-.367,1.274,1.274,0,0,0,.444-.587,1.747,1.747,0,0,0,.05-.291,1.539,1.539,0,0,0-.215-.271.2.2,0,0,0-.331.123,2.6,2.6,0,0,1-.584,1.083A.456.456,0,0,0,1210.345,923.8Z" transform="translate(-1204.585 -919.907)" fill="#890c6c"/>
        <path id="Trazado_1515" data-name="Trazado 1515" d="M1354.634,901.653a.854.854,0,0,0,.093-.051,1.09,1.09,0,0,0,.387-.507.2.2,0,0,0-.072-.265.169.169,0,0,0-.251.011,1.787,1.787,0,0,0-.294.338.8.8,0,0,0-.089.346C1354.4,901.638,1354.5,901.694,1354.634,901.653Z" transform="translate(-1344.001 -899.006)" fill="#890c6c"/>
      </g>
      <g id="Grupo_1696" data-name="Grupo 1696" transform="translate(9.271 11.149)">
        <path id="Trazado_1516" data-name="Trazado 1516" d="M1149.381,843.976a5.157,5.157,0,0,1,.336-.424,12.034,12.034,0,0,0,1.551-2.226c.134-.258.337-.663.449-.933a.192.192,0,0,0-.048-.227.316.316,0,0,0-.509-.026,7.014,7.014,0,0,0-2.324,3.473.525.525,0,0,1-.11.205q-.634.688-1.278,1.367a.511.511,0,0,1-.137.1c-.038.019-.1.04-.126.023s-.035-.081-.043-.125a.168.168,0,0,1,.009-.075c.075-.278.135-.561.232-.831s.23-.513.348-.769c.03-.065.056-.138-.049-.142a.549.549,0,0,0-.59.291,1.94,1.94,0,0,1-.178.333c-.42.5-.84,1-1.28,1.482a2.2,2.2,0,0,1-1,.646c-.113.034-.179,0-.19-.118a.97.97,0,0,1,.016-.289,2.7,2.7,0,0,1,.682-1.273,1.34,1.34,0,0,1,.528-.362.252.252,0,0,1-.022.153c-.11.152-.231.295-.344.444a.543.543,0,0,0-.052.124c.049.013.1.048.145.035a1.56,1.56,0,0,0,.349-.143,1,1,0,0,0,.514-.7.277.277,0,0,0-.307-.354.433.433,0,0,0-.086.008,2.787,2.787,0,0,0-1.238.749,2.2,2.2,0,0,0-.226.275q-.639.755-1.281,1.508c-.056.066-.126.12-.2.19a.226.226,0,0,1-.008-.062,4.734,4.734,0,0,1,.149-.5c.142-.347.3-.688.452-1.032a.147.147,0,0,0-.028-.2.279.279,0,0,0-.381.009c-.127-.169-.281-.129-.429-.037a2.533,2.533,0,0,0-.387.274,4.864,4.864,0,0,0-1.245,1.878,1.236,1.236,0,0,0-.11.6.356.356,0,0,0,.556.267,1.14,1.14,0,0,0,.233-.207c.193-.269.374-.547.556-.824a.46.46,0,0,0,.037-.133l.052.022c.009.052.015.1.026.156a3.175,3.175,0,0,0,.091.411c.081.229.252.273.421.1.19-.2.364-.409.535-.622.148-.185.281-.381.428-.584.008.1.008.181.021.262.078.477.36.725.86.489a2.751,2.751,0,0,0,.478-.291,6.751,6.751,0,0,0,1.181-1.214c.07-.088.138-.176.227-.289-.022.123-.04.214-.054.306a.915.915,0,0,0,.034.469.47.47,0,0,0,.527.336.791.791,0,0,0,.532-.261c.268-.306.524-.623.782-.938.074-.09.137-.19.2-.277.044.151.077.3.13.445a.509.509,0,0,0,.8.323,1.427,1.427,0,0,0,.4-.307,16.583,16.583,0,0,0,1.691-2.368c.06-.1.039-.155-.068-.234l-.073.09c-.384.469-.762.943-1.154,1.405a4.245,4.245,0,0,1-.832.8c-.157.106-.243.074-.293-.106A.634.634,0,0,1,1149.381,843.976ZM1151,840.8a7.519,7.519,0,0,1-1.369,2.289A9.3,9.3,0,0,1,1151,840.8Zm-9.3,5.985-.038-.018a.689.689,0,0,1,.023-.14,3.862,3.862,0,0,1,1.02-1.548,1.763,1.763,0,0,1,.249-.16l.028.037A17.667,17.667,0,0,1,1141.7,846.785Z" transform="translate(-1137.215 -840.025)" fill="#fff"/>
        <path id="Trazado_1517" data-name="Trazado 1517" d="M1030.029,909.158a1.386,1.386,0,0,0-.15-.225.329.329,0,0,0-.172-.074,1.249,1.249,0,0,0-.278-.02,4.079,4.079,0,0,0-1.069.249l-.3.1a.872.872,0,0,1,.037-.081q.338-.531.678-1.061c.109-.169.108-.18-.074-.3.111-.043.206-.087.306-.118q1.073-.336,2.146-.667c.179-.055.359-.106.538-.162a.293.293,0,0,0,.076-.057.327.327,0,0,0-.063-.072,1.661,1.661,0,0,0-.809-.273,4.207,4.207,0,0,0-1.177.139,13.3,13.3,0,0,0-2.29.823c-.163.073-.325.151-.5.232l.073-.172a.966.966,0,0,0-.193.053c-.2.109-.4.218-.592.342a3.018,3.018,0,0,0-.412.325.212.212,0,0,0-.012.329.355.355,0,0,0,.369.142,6.113,6.113,0,0,0,.745-.208c.437-.155.868-.328,1.3-.493a1.351,1.351,0,0,1,.135-.036l.01.021c-.068.084-.142.164-.2.253-.293.421-.585.843-.872,1.269a.607.607,0,0,1-.275.233,4.941,4.941,0,0,0-.491.245.168.168,0,0,0-.045.283,1.42,1.42,0,0,0,.15.166.15.15,0,0,1,.028.213,2.938,2.938,0,0,0-.385,1.459.335.335,0,0,0,.053.21.706.706,0,0,0,.488.177,3.85,3.85,0,0,1,.047-.388,2.78,2.78,0,0,1,.119-.374c.137-.364.285-.725.415-1.092a.652.652,0,0,1,.376-.4q1.049-.444,2.1-.887A1.926,1.926,0,0,0,1030.029,909.158Z" transform="translate(-1025.715 -904.252)" fill="#fff"/>
        <path id="Trazado_1518" data-name="Trazado 1518" d="M1204.026,917.95a.171.171,0,0,0,.03.143.145.145,0,0,0,.135,0,6.119,6.119,0,0,0,.569-.367,1.272,1.272,0,0,0,.444-.587,1.746,1.746,0,0,0,.05-.291,1.562,1.562,0,0,0-.215-.271.2.2,0,0,0-.331.123,2.6,2.6,0,0,1-.584,1.083A.449.449,0,0,0,1204.026,917.95Z" transform="translate(-1198.266 -914.057)" fill="#fff"/>
        <path id="Trazado_1519" data-name="Trazado 1519" d="M1348.315,895.8a.919.919,0,0,0,.093-.051,1.093,1.093,0,0,0,.387-.507.2.2,0,0,0-.073-.265.168.168,0,0,0-.251.011,1.774,1.774,0,0,0-.294.338.792.792,0,0,0-.089.347C1348.082,895.787,1348.185,895.843,1348.315,895.8Z" transform="translate(-1337.682 -893.155)" fill="#fff"/>
      </g>
    </g>
  </g>
</svg>
