<svg id="Grupo_1612" data-name="Grupo 1612" xmlns="http://www.w3.org/2000/svg" width="88.777" height="34.633" viewBox="0 0 88.777 34.633">
  <g id="Grupo_1691" data-name="Grupo 1691" transform="translate(0)">
    <path id="Trazado_1490" data-name="Trazado 1490" d="M481.79,279.882c1.006,2.343-.886,5.4-4.226,6.839s-6.863.7-7.868-1.646.886-5.4,4.226-6.838S480.784,277.54,481.79,279.882Z" transform="translate(-415.378 -275.937)" fill="#d82c15"/>
    <g id="Grupo_1686" data-name="Grupo 1686" transform="translate(38.056 20.118)">
      <path id="Trazado_1491" data-name="Trazado 1491" d="M452.307,311.836l-9.33.038-.96,2.419h1.036a.585.585,0,0,1,.345.806l-3.569,8.906h3.531l1.383-3.34H449a4.061,4.061,0,0,0,3.225-2.035l1.919-4.76S454.764,312.259,452.307,311.836Zm-2.188,3.417-1,2.265s-.191.614-1.151.614l-2.266-.077,1.46-3.647h2.457S450.31,314.409,450.119,315.253Z" transform="translate(-439.83 -311.836)" fill="#002063"/>
      <path id="Trazado_1492" data-name="Trazado 1492" d="M454.615,316.6h-2.457l-1.459,3.647,2.266.077c.96,0,1.152-.614,1.152-.614l1-2.265C455.306,316.6,454.615,316.6,454.615,316.6Z" transform="translate(-444.826 -314.024)" fill="#fff"/>
    </g>
    <g id="Grupo_1687" data-name="Grupo 1687" transform="translate(51.663 20.157)">
      <path id="Trazado_1493" data-name="Trazado 1493" d="M475.861,316.821l2-4.914h-7.371s-2.956.307-3.762,2.227l-1.574,3.762s-.768,2.457,1.344,2.649h9.521l1-2.38S475.208,318.4,475.861,316.821Zm-3.955,1.344h-2.572s-.537-.077-.269-1c0,0,.806-2.764,1.959-2.841l2.265.076Z" transform="translate(-465.013 -311.907)" fill="#002063"/>
      <path id="Trazado_1494" data-name="Trazado 1494" d="M472.448,319.225c-.268.921.269,1,.269,1h2.572l1.383-3.763-2.265-.076C473.254,316.46,472.448,319.225,472.448,319.225Z" transform="translate(-468.396 -313.965)" fill="#fff"/>
    </g>
    <g id="Grupo_1688" data-name="Grupo 1688" transform="translate(63.261 18.107)">
      <path id="Trazado_1495" data-name="Trazado 1495" d="M498.494,312.72l-1.307-1.4a.641.641,0,0,1,.048-1l.641-.451-1.639-1.757a88.162,88.162,0,0,0-8.927,5.2,1.746,1.746,0,0,0-.048,1.995l3.11,3.229a.778.778,0,0,1-.593,1.069l-2.209-.024-1.093,2.4c.57,0,3.942-.048,3.942-.048,3.063-1.543,3.918-2.778,3.918-2.778a1.369,1.369,0,0,0-.024-1.544c-.4-.5.262-.712.262-.712a19.218,19.218,0,0,0,3.728-2.541A1.546,1.546,0,0,0,498.494,312.72ZM494.789,314l-2.659,1.686a.5.5,0,0,1-.641-.071l-1.069-1.211c-.285-.356.166-.879.166-.879l2.042-1.305c.9-.38,1.259.023,1.259.023l.9.879A.772.772,0,0,1,494.789,314Z" transform="translate(-486.478 -308.114)" fill="#002063"/>
      <path id="Trazado_1496" data-name="Trazado 1496" d="M497.16,315.6s-.356-.4-1.258-.023l-2.042,1.305s-.451.523-.166.879l1.069,1.211a.5.5,0,0,0,.641.071l2.659-1.686a.772.772,0,0,0,0-.878Z" transform="translate(-489.751 -311.47)" fill="#fff"/>
    </g>
    <g id="Grupo_1689" data-name="Grupo 1689" transform="translate(75.388 19.839)">
      <path id="Trazado_1497" data-name="Trazado 1497" d="M522.009,314.493a28.047,28.047,0,0,0-3.3-2.9,3.62,3.62,0,0,0-2.8.024s-4.179,2.09-6.126,3.4a2.012,2.012,0,0,0-.76,2.113,23.983,23.983,0,0,0,3.23,3.23,3.135,3.135,0,0,0,2.612.166s4.749-1.828,7.124-4.084A1.646,1.646,0,0,0,522.009,314.493Zm-3.941,1.757c-.024.119-2.4,1.377-2.4,1.377a1.32,1.32,0,0,1-1.306.048,7.118,7.118,0,0,1-1.139-1.14c-.286-.309.023-.76.023-.76a16.884,16.884,0,0,1,2.494-1.5c.475-.309,1.234.071,1.234.071l1.094,1A.631.631,0,0,1,518.068,316.251Z" transform="translate(-508.92 -311.319)" fill="#002063"/>
      <path id="Trazado_1498" data-name="Trazado 1498" d="M520.533,316.768s-.758-.38-1.233-.071a16.881,16.881,0,0,0-2.494,1.5s-.309.451-.023.76a7.119,7.119,0,0,0,1.139,1.14,1.32,1.32,0,0,0,1.306-.048s2.375-1.258,2.4-1.377a.632.632,0,0,0,0-.9Z" transform="translate(-512.478 -313.735)" fill="#fff"/>
    </g>
    <path id="Trazado_1499" data-name="Trazado 1499" d="M437.735,311.921H434.22s-2.233,5.437-2.446,6.174c0,0-.427,1.329.213,1.852a2.433,2.433,0,0,0,1.449.689l2.446-.024,1.045-2.422h-.784a.71.71,0,0,1-.522-1.045Z" transform="translate(-398.007 -291.757)" fill="#d82c15"/>
    <path id="Trazado_1500" data-name="Trazado 1500" d="M438.682,305.272a2.823,2.823,0,0,1,2.043.071,1.019,1.019,0,0,1,.19,1.591,2.591,2.591,0,0,1-2.232,1.021s-1.377.166-1.472-.974C437.21,306.982,437.138,305.818,438.682,305.272Z" transform="translate(-400.57 -288.622)" fill="#d82c15"/>
    <g id="Grupo_1690" data-name="Grupo 1690" transform="translate(19.804 20.093)">
      <path id="Trazado_1501" data-name="Trazado 1501" d="M419.8,312.407a2.567,2.567,0,0,0-1.662-.618l-8.952.024-.926,2.469h.76s.831,0,.356,1.211l-3.325,8.5,3.491.024,1.282-3.491,4.536.024a3.053,3.053,0,0,0,2.494-1.306,20.362,20.362,0,0,0,2.279-5.034S420.585,313.024,419.8,312.407Zm-3.633,2.873a10.106,10.106,0,0,1-.9,2.185,1.582,1.582,0,0,1-1.187.618h-2.256l1.52-3.681h2.351C416.5,314.425,416.168,315.28,416.168,315.28Z" transform="translate(-406.052 -311.789)" fill="#d82c15"/>
      <path id="Trazado_1502" data-name="Trazado 1502" d="M420.6,316.623h-2.351l-1.52,3.681h2.256a1.582,1.582,0,0,0,1.187-.618,10.106,10.106,0,0,0,.9-2.185S421.409,316.647,420.6,316.623Z" transform="translate(-410.961 -314.011)" fill="#fff"/>
    </g>
    <path id="Trazado_1503" data-name="Trazado 1503" d="M397.033,316.681,399,311.813l-7.076-.024a6.4,6.4,0,0,0-2.256.546,3.143,3.143,0,0,0-1.686,1.615,30.756,30.756,0,0,0-1.591,3.8c-.617,1.5,0,2.019,0,2.019a2.249,2.249,0,0,0,1.733.807l9.071.024,1-2.4-1.116-.19C396.534,317.749,397.033,316.681,397.033,316.681Zm-3.989,1.354-2.351.047s-.855-.047-.474-1.164a6.748,6.748,0,0,1,.9-1.995,1.357,1.357,0,0,1,1.235-.569l2.066.048Z" transform="translate(-377.086 -291.696)" fill="#d82c15"/>
    <path id="Trazado_1504" data-name="Trazado 1504" d="M380.087,311.857l-1.045,2.517h-2.778s-.76-.142-1.235.926l-2.066,5.271-3.562.048,3.467-8.786Z" transform="translate(-369.401 -291.716)" fill="#d82c15"/>
    <path id="Trazado_1505" data-name="Trazado 1505" d="M465.623,274.631s-3.443,1.164-4.607,2.517a9.527,9.527,0,0,0-2.613,4.535s-.307,2.612.974,3.894a6.745,6.745,0,0,0,2.352,1.924,9.36,9.36,0,0,0,4.13.452s4.132-.523,6.293-2.9a12.9,12.9,0,0,1-4.369,4.464,17.517,17.517,0,0,1-5.938,2.493,14.552,14.552,0,0,1-6.268.142s-2.991-.593-4.393-2.374a5.684,5.684,0,0,1-1.544-3.633,8.338,8.338,0,0,1,1.781-5.105,18.841,18.841,0,0,1,4.037-3.657,28.006,28.006,0,0,1,4.63-2.089A16.934,16.934,0,0,1,465.623,274.631Z" transform="translate(-406.282 -274.603)" fill="#002063"/>
    <path id="Trazado_1506" data-name="Trazado 1506" d="M504.673,338.007s.162-.059.177.146c0,0-.029.324-.177.191C504.673,338.345,504.439,337.992,504.673,338.007Z" transform="translate(-431.532 -303.744)" fill="none"/>
  </g>
</svg>
