<svg id="visa" xmlns="http://www.w3.org/2000/svg" width="76.072" height="23.063" viewBox="0 0 76.072 23.063">
  <path id="Trazado_1468" data-name="Trazado 1468" d="M184.8,202.135l3.864-21.735H194.7l-3.743,21.735Z" transform="translate(-156.907 -179.676)" fill="#3c58bf"/>
  <path id="Trazado_1469" data-name="Trazado 1469" d="M184.8,202.135l4.951-21.735H194.7l-3.743,21.735Z" transform="translate(-156.907 -179.676)" fill="#293688"/>
  <path id="Trazado_1470" data-name="Trazado 1470" d="M266.475,176.566a15.315,15.315,0,0,0-5.554-.966c-6.037,0-10.384,3.019-10.384,7.366,0,3.26,3.019,4.951,5.434,6.038s3.14,1.811,3.14,2.777c0,1.449-1.932,2.173-3.623,2.173a13.124,13.124,0,0,1-5.8-1.208l-.845-.362L248,197.335a19.579,19.579,0,0,0,6.883,1.208c6.4,0,10.626-3.019,10.626-7.607,0-2.536-1.57-4.468-5.192-6.037-2.174-1.087-3.5-1.69-3.5-2.777,0-.966,1.087-1.932,3.5-1.932a11.076,11.076,0,0,1,4.588.845l.6.242.966-4.709Z" transform="translate(-210.568 -175.6)" fill="#3c58bf"/>
  <path id="Trazado_1471" data-name="Trazado 1471" d="M266.475,176.566a15.315,15.315,0,0,0-5.554-.966c-6.037,0-9.3,3.019-9.3,7.366,0,3.26,1.932,4.951,4.347,6.038s3.14,1.811,3.14,2.777c0,1.449-1.932,2.173-3.623,2.173a13.124,13.124,0,0,1-5.8-1.208l-.845-.362L248,197.335a19.579,19.579,0,0,0,6.883,1.208c6.4,0,10.626-3.019,10.626-7.607,0-2.536-1.57-4.468-5.192-6.037-2.174-1.087-3.5-1.69-3.5-2.777,0-.966,1.087-1.932,3.5-1.932a11.076,11.076,0,0,1,4.588.845l.6.242.966-4.709Z" transform="translate(-210.568 -175.6)" fill="#293688"/>
  <path id="Trazado_1472" data-name="Trazado 1472" d="M370.6,180.4c-1.449,0-2.536.121-3.139,1.57L358.4,202.135h6.52l1.208-3.622h7.728l.725,3.622h5.8L375.3,180.4Zm-2.777,14.49c.362-1.087,2.415-6.4,2.415-6.4s.483-1.328.845-2.173l.362,2.053s1.207,5.434,1.449,6.641h-5.071Z" transform="translate(-304.304 -179.676)" fill="#3c58bf"/>
  <path id="Trazado_1473" data-name="Trazado 1473" d="M372.045,180.4c-1.449,0-2.536.121-3.139,1.57L358.4,202.135h6.52l1.208-3.622h7.728l.725,3.622h5.8L375.3,180.4Zm-4.226,14.49c.483-1.207,2.415-6.4,2.415-6.4s.483-1.328.845-2.173l.362,2.053s1.207,5.434,1.449,6.641h-5.071Z" transform="translate(-304.304 -179.676)" fill="#293688"/>
  <path id="Trazado_1474" data-name="Trazado 1474" d="M60.256,196.294l-.6-3.139c-1.087-3.622-4.588-7.607-8.452-9.539l5.434,19.32h6.52L72.935,181.2h-6.52Z" transform="translate(-43.472 -180.355)" fill="#3c58bf"/>
  <path id="Trazado_1475" data-name="Trazado 1475" d="M60.256,196.294l-.6-3.139c-1.087-3.622-4.588-7.607-8.452-9.539l5.434,19.32h6.52L72.935,181.2H67.622Z" transform="translate(-43.472 -180.355)" fill="#293688"/>
  <path id="Trazado_1476" data-name="Trazado 1476" d="M0,180.4l1.087.241c7.728,1.811,13.041,6.4,15.094,11.833l-2.173-10.264c-.362-1.449-1.449-1.811-2.777-1.811Z" transform="translate(0 -179.676)" fill="#ffbc00"/>
  <path id="Trazado_1477" data-name="Trazado 1477" d="M0,180.4H0c7.728,1.811,14.128,6.52,16.18,11.954l-2.053-8.573a2.948,2.948,0,0,0-2.9-2.294Z" transform="translate(0 -179.676)" fill="#f7981d"/>
  <path id="Trazado_1478" data-name="Trazado 1478" d="M0,180.4H0c7.728,1.811,14.128,6.52,16.18,11.954l-1.449-4.709c-.362-1.449-.845-2.9-2.536-3.5Z" transform="translate(0 -179.676)" fill="#ed7c00"/>
  <g id="Grupo_1602" data-name="Grupo 1602" transform="translate(7.849 3.139)">
    <path id="Trazado_1479" data-name="Trazado 1479" d="M66.973,208.475l-4.105-4.105-1.932,4.588-.483-3.019c-1.087-3.622-4.588-7.607-8.452-9.539l5.434,19.32h6.52Z" transform="translate(-52 -196.4)" fill="#051244"/>
    <path id="Trazado_1480" data-name="Trazado 1480" d="M190.958,294.513l-5.192-5.313-.966,5.313Z" transform="translate(-164.756 -275.193)" fill="#051244"/>
    <path id="Trazado_1481" data-name="Trazado 1481" d="M258.505,274.8h0c.483.483.725.845.6,1.328,0,1.449-1.932,2.174-3.622,2.174a13.124,13.124,0,0,1-5.8-1.208l-.845-.362L248,281.683a19.579,19.579,0,0,0,6.883,1.207c3.864,0,7-1.087,8.815-3.019Z" transform="translate(-218.417 -262.967)" fill="#051244"/>
    <path id="Trazado_1482" data-name="Trazado 1482" d="M364,235.418h5.675l1.207-3.622h7.728l.725,3.622h5.8l-2.053-8.815-7.245-7,.362,1.932s1.207,5.434,1.449,6.641h-5.072c.483-1.207,2.415-6.4,2.415-6.4s.483-1.328.845-2.174" transform="translate(-316.908 -216.098)" fill="#051244"/>
  </g>
</svg>
